<svg xmlns="http://www.w3.org/2000/svg" version="1.1" xmlns:xlink="http://www.w3.org/1999/xlink" xmlns:svgjs="http://svgjs.dev/svgjs" width="1500" height="939" viewBox="0 0 1500 939"><g transform="matrix(1,0,0,1,-0.9090909090909918,-1.5145161290323017)"><svg viewBox="0 0 396 248" data-background-color="#ffffff" preserveAspectRatio="xMidYMid meet" height="939" width="1500" xmlns="http://www.w3.org/2000/svg" xmlns:xlink="http://www.w3.org/1999/xlink"><g id="tight-bounds" transform="matrix(1,0,0,1,0.2400000000000091,0.4000000000000057)"><svg viewBox="0 0 395.52 247.2" height="247.2" width="395.52"><g><svg></svg></g><g><svg viewBox="0 0 395.52 247.2" height="247.2" width="395.52"><mask id="551bf29c-9379-4e6b-9bd3-2d67a05e32ce"><rect width="395.52" height="247.2" fill="white"></rect><g transform="matrix(1,0,0,1,0,62.01786133960047)" id="clone"><svg viewBox="0 0 395.52 123.16427732079904" height="123.16427732079904" width="395.52"><g><svg viewBox="0 0 395.52 123.16427732079904" height="123.16427732079904" width="395.52"><g><svg viewBox="0 0 395.52 123.16427732079904" height="123.16427732079904" width="395.52"><g><svg viewBox="0 0 395.52 123.16427732079904" height="123.16427732079904" width="395.52"><g id="SvgjsG6518"><svg viewBox="0 0 395.52 123.16427732079904" height="123.16427732079904" width="395.52" id="SvgjsSvg6517"><g><svg viewBox="0 0 395.52 123.16427732079904" height="123.16427732079904" width="395.52"><g transform="matrix(1,0,0,1,0,0)"><svg width="395.52" viewBox="1.4000000000000004 -37.1 128.64 40.75" height="123.16427732079904" data-palette-color="#014397"><path d="M8.6-30.25L8.6-3.85 15.35-3.85Q18.1-3.85 20.53-4.55 22.95-5.25 24.78-6.83 26.6-8.4 27.65-10.95 28.7-13.5 28.7-17.15L28.7-17.15Q28.7-20.55 27.75-23.03 26.8-25.5 25.08-27.1 23.35-28.7 20.88-29.48 18.4-30.25 15.35-30.25L15.35-30.25 8.6-30.25ZM4.4 0L4.4-34.1 15.35-34.1Q19.4-34.1 22.68-33.1 25.95-32.1 28.3-30 30.65-27.9 31.93-24.7 33.2-21.5 33.2-17.15L33.2-17.15Q33.2-12.75 31.8-9.53 30.4-6.3 28-4.17 25.6-2.05 22.35-1.03 19.1 0 15.35 0L15.35 0 4.4 0ZM57.2-3.95L57.95-0.6Q56.8-0.25 55.57 0 54.35 0.25 52.87 0.45 51.4 0.65 49.8 0.65L49.8 0.65Q47.3 0.65 45.15-0.05 43-0.75 41.4-2.3 39.8-3.85 38.87-6.33 37.95-8.8 37.95-12.4L37.95-12.4Q37.95-15.65 38.85-18.13 39.75-20.6 41.32-22.28 42.9-23.95 45.02-24.8 47.15-25.65 49.65-25.65L49.65-25.65Q52.1-25.65 53.9-24.7 55.7-23.75 56.87-22.13 58.05-20.5 58.62-18.32 59.2-16.15 59.2-13.75L59.2-13.75 58.45-11.55 42.3-11.55Q42.3-10 42.7-8.45 43.1-6.9 44.07-5.65 45.05-4.4 46.62-3.63 48.2-2.85 50.55-2.85L50.55-2.85Q52.05-2.85 53.3-3.03 54.55-3.2 55.47-3.43 56.4-3.65 57.2-3.95L57.2-3.95ZM42.45-14.75L55.05-14.75Q55.05-15.1 54.9-16.3 54.75-17.5 54.2-18.8 53.65-20.1 52.5-21.13 51.35-22.15 49.45-22.15L49.45-22.15Q47.35-22.15 46-21.28 44.65-20.4 43.85-19.2 43.05-18 42.75-16.75 42.45-15.5 42.45-14.75L42.45-14.75ZM81.05-24.85L80.25-21.5Q79.4-21.7 77.9-21.93 76.4-22.15 74.84-22.15L74.84-22.15Q72.59-22.15 71.17-21.25 69.75-20.35 68.95-18.93 68.14-17.5 67.84-15.78 67.55-14.05 67.55-12.4L67.55-12.4Q67.55-9.85 68.2-8.03 68.84-6.2 69.92-5.05 71-3.9 72.4-3.38 73.8-2.85 75.34-2.85L75.34-2.85Q76.4-2.85 77.37-2.98 78.34-3.1 79.17-3.28 80-3.45 80.75-3.7L80.75-3.7 81.55-0.35Q80.5-0.05 79.59 0.15 78.7 0.35 77.47 0.5 76.25 0.65 74.84 0.65L74.84 0.65Q72.09 0.65 69.95-0.05 67.8-0.75 66.32-2.3 64.84-3.85 64.07-6.35 63.3-8.85 63.3-12.45L63.3-12.45Q63.3-15.95 64.27-18.48 65.25-21 66.84-22.58 68.45-24.15 70.52-24.9 72.59-25.65 74.84-25.65L74.84-25.65Q76.05-25.65 77.17-25.53 78.3-25.4 79.15-25.25L79.15-25.25Q80.15-25.05 81.05-24.85L81.05-24.85ZM88.74-12.45L88.74-12.45Q88.74-7.6 90.92-5.23 93.09-2.85 96.79-2.85L96.79-2.85Q100.44-2.85 102.49-5.2 104.54-7.55 104.54-12.25L104.54-12.25Q104.54-17.25 102.37-19.7 100.19-22.15 96.44-22.15L96.44-22.15Q92.69-22.15 90.72-19.73 88.74-17.3 88.74-12.45ZM84.49-12.5L84.49-12.5Q84.49-16.3 85.69-18.82 86.89-21.35 88.74-22.88 90.59-24.4 92.72-25.03 94.84-25.65 96.74-25.65L96.74-25.65Q98.54-25.65 100.67-25.08 102.79-24.5 104.59-23.03 106.39-21.55 107.59-19.07 108.79-16.6 108.79-12.8L108.79-12.8Q108.79-8.85 107.57-6.25 106.34-3.65 104.49-2.13 102.64-0.6 100.49 0.03 98.34 0.65 96.49 0.65L96.49 0.65Q94.59 0.65 92.49 0.05 90.39-0.55 88.62-2.02 86.84-3.5 85.67-6.05 84.49-8.6 84.49-12.5ZM114.64 0L114.64-21.1Q114.64-22.25 114.39-24.7L114.39-24.7 118.09-25.2 118.49-21.55 118.54-21.55Q119.44-22.7 120.29-23.55 121.14-24.4 122.07-25.03 122.99-25.65 123.84-25.65L123.84-25.65Q124.99-25.7 127.04-25.4L127.04-25.4 126.14-21.55Q124.49-21.85 123.84-21.8L123.84-21.8Q122.99-21.8 122.04-21 121.09-20.2 120.39-19.3L120.39-19.3Q119.49-18.2 118.64-16.8L118.64-16.8 118.64 0 114.64 0Z" opacity="1" transform="matrix(1,0,0,1,0,0)" fill="black" class="wordmark-text-0" id="SvgjsPath6516" stroke-width="5" stroke="black" stroke-linejoin="round"></path></svg></g></svg></g></svg></g></svg></g></svg></g></svg></g></svg></g></mask><g mask="url(#551bf29c-9379-4e6b-9bd3-2d67a05e32ce)"><g><path d="M123.817 27.91v191.38h48.933c13.29 0 25.807-1.692 37.551-5.074 11.695-3.383 21.965-8.892 30.81-16.528 8.796-7.588 15.731-17.543 20.805-29.867 5.074-12.324 7.612-27.306 7.612-44.946v0c0-16.432-2.296-30.64-6.887-42.626-4.591-11.937-11.043-21.772-19.356-29.504-8.361-7.733-18.51-13.484-30.447-17.253-11.985-3.721-25.348-5.582-40.088-5.582v0zM93.371 247.2v-247.2h79.379c19.573 0 37.285 2.416 53.137 7.249 15.803 4.833 29.384 12.324 40.741 22.473 11.357 10.149 20.129 22.956 26.315 38.421 6.138 15.465 9.207 33.709 9.206 54.732v0c0 21.265-3.383 39.678-10.149 55.239-6.766 15.61-15.948 28.562-27.547 38.857-11.599 10.246-25.252 17.833-40.958 22.762-15.707 4.978-32.622 7.467-50.745 7.467v0z" fill="#014397" fill-rule="nonzero" stroke="none" stroke-width="1" stroke-linecap="butt" stroke-linejoin="miter" stroke-miterlimit="10" stroke-dasharray="" stroke-dashoffset="0" font-family="none" font-weight="none" font-size="none" text-anchor="none" style="mix-blend-mode: normal" data-fill-palette-color="tertiary"></path></g></g><g transform="matrix(1,0,0,1,0,62.01786133960047)"><svg viewBox="0 0 395.52 123.16427732079904" height="123.16427732079904" width="395.52"><g><svg viewBox="0 0 395.52 123.16427732079904" height="123.16427732079904" width="395.52"><g><svg viewBox="0 0 395.52 123.16427732079904" height="123.16427732079904" width="395.52"><g><svg viewBox="0 0 395.52 123.16427732079904" height="123.16427732079904" width="395.52"><g id="textblocktransform"><svg viewBox="0 0 395.52 123.16427732079904" height="123.16427732079904" width="395.52" id="textblock"><g><svg viewBox="0 0 395.52 123.16427732079904" height="123.16427732079904" width="395.52"><g transform="matrix(1,0,0,1,0,0)"><svg width="395.52" viewBox="1.4000000000000004 -37.1 128.64 40.75" height="123.16427732079904" data-palette-color="#014397"><path d="M8.6-30.25L8.6-3.85 15.35-3.85Q18.1-3.85 20.53-4.55 22.95-5.25 24.78-6.83 26.6-8.4 27.65-10.95 28.7-13.5 28.7-17.15L28.7-17.15Q28.7-20.55 27.75-23.03 26.8-25.5 25.08-27.1 23.35-28.7 20.88-29.48 18.4-30.25 15.35-30.25L15.35-30.25 8.6-30.25ZM4.4 0L4.4-34.1 15.35-34.1Q19.4-34.1 22.68-33.1 25.95-32.1 28.3-30 30.65-27.9 31.93-24.7 33.2-21.5 33.2-17.15L33.2-17.15Q33.2-12.75 31.8-9.53 30.4-6.3 28-4.17 25.6-2.05 22.35-1.03 19.1 0 15.35 0L15.35 0 4.4 0ZM57.2-3.95L57.95-0.6Q56.8-0.25 55.57 0 54.35 0.25 52.87 0.45 51.4 0.65 49.8 0.65L49.8 0.65Q47.3 0.65 45.15-0.05 43-0.75 41.4-2.3 39.8-3.85 38.87-6.33 37.95-8.8 37.95-12.4L37.95-12.4Q37.95-15.65 38.85-18.13 39.75-20.6 41.32-22.28 42.9-23.95 45.02-24.8 47.15-25.65 49.65-25.65L49.65-25.65Q52.1-25.65 53.9-24.7 55.7-23.75 56.87-22.13 58.05-20.5 58.62-18.32 59.2-16.15 59.2-13.75L59.2-13.75 58.45-11.55 42.3-11.55Q42.3-10 42.7-8.45 43.1-6.9 44.07-5.65 45.05-4.4 46.62-3.63 48.2-2.85 50.55-2.85L50.55-2.85Q52.05-2.85 53.3-3.03 54.55-3.2 55.47-3.43 56.4-3.65 57.2-3.95L57.2-3.95ZM42.45-14.75L55.05-14.75Q55.05-15.1 54.9-16.3 54.75-17.5 54.2-18.8 53.65-20.1 52.5-21.13 51.35-22.15 49.45-22.15L49.45-22.15Q47.35-22.15 46-21.28 44.65-20.4 43.85-19.2 43.05-18 42.75-16.75 42.45-15.5 42.45-14.75L42.45-14.75ZM81.05-24.85L80.25-21.5Q79.4-21.7 77.9-21.93 76.4-22.15 74.84-22.15L74.84-22.15Q72.59-22.15 71.17-21.25 69.75-20.35 68.95-18.93 68.14-17.5 67.84-15.78 67.55-14.05 67.55-12.4L67.55-12.4Q67.55-9.85 68.2-8.03 68.84-6.2 69.92-5.05 71-3.9 72.4-3.38 73.8-2.85 75.34-2.85L75.34-2.85Q76.4-2.85 77.37-2.98 78.34-3.1 79.17-3.28 80-3.45 80.75-3.7L80.75-3.7 81.55-0.35Q80.5-0.05 79.59 0.15 78.7 0.35 77.47 0.5 76.25 0.65 74.84 0.65L74.84 0.65Q72.09 0.65 69.95-0.05 67.8-0.75 66.32-2.3 64.84-3.85 64.07-6.35 63.3-8.85 63.3-12.45L63.3-12.45Q63.3-15.95 64.27-18.48 65.25-21 66.84-22.58 68.45-24.15 70.52-24.9 72.59-25.65 74.84-25.65L74.84-25.65Q76.05-25.65 77.17-25.53 78.3-25.4 79.15-25.25L79.15-25.25Q80.15-25.05 81.05-24.85L81.05-24.85ZM88.74-12.45L88.74-12.45Q88.74-7.6 90.92-5.23 93.09-2.85 96.79-2.85L96.79-2.85Q100.44-2.85 102.49-5.2 104.54-7.55 104.54-12.25L104.54-12.25Q104.54-17.25 102.37-19.7 100.19-22.15 96.44-22.15L96.44-22.15Q92.69-22.15 90.72-19.73 88.74-17.3 88.74-12.45ZM84.49-12.5L84.49-12.5Q84.49-16.3 85.69-18.82 86.89-21.35 88.74-22.88 90.59-24.4 92.72-25.03 94.84-25.65 96.74-25.65L96.74-25.65Q98.54-25.65 100.67-25.08 102.79-24.5 104.59-23.03 106.39-21.55 107.59-19.07 108.79-16.6 108.79-12.8L108.79-12.8Q108.79-8.85 107.57-6.25 106.34-3.65 104.49-2.13 102.64-0.6 100.49 0.03 98.34 0.65 96.49 0.65L96.49 0.65Q94.59 0.65 92.49 0.05 90.39-0.55 88.62-2.02 86.84-3.5 85.67-6.05 84.49-8.6 84.49-12.5ZM114.64 0L114.64-21.1Q114.64-22.25 114.39-24.7L114.39-24.7 118.09-25.2 118.49-21.55 118.54-21.55Q119.44-22.7 120.29-23.55 121.14-24.4 122.07-25.03 122.99-25.65 123.84-25.65L123.84-25.65Q124.99-25.7 127.04-25.4L127.04-25.4 126.14-21.55Q124.49-21.85 123.84-21.8L123.84-21.8Q122.99-21.8 122.04-21 121.09-20.2 120.39-19.3L120.39-19.3Q119.49-18.2 118.64-16.8L118.64-16.8 118.64 0 114.64 0Z" opacity="1" transform="matrix(1,0,0,1,0,0)" fill="#014397" class="wordmark-text-0" data-fill-palette-color="primary" id="text-0"></path></svg></g></svg></g></svg></g></svg></g></svg></g></svg></g></svg></g></svg></g><defs></defs></svg><rect width="395.52" height="247.2" fill="none" stroke="none" visibility="hidden"></rect></g></svg></g></svg>