<svg aria-hidden="true" style="position: absolute; width: 0; height: 0; overflow: hidden;" version="1.1" xmlns="http://www.w3.org/2000/svg" xmlns:xlink="http://www.w3.org/1999/xlink">
<defs>
<symbol id="icon-profile" viewBox="0 0 24 28">
<path d="M18.766 12.25c2.203 0.641 5.234 2.812 5.234 9.922 0 3.219-2.391 5.828-5.328 5.828h-13.344c-2.938 0-5.328-2.609-5.328-5.828 0-7.109 3.031-9.281 5.234-9.922-0.781-1.234-1.234-2.688-1.234-4.25 0-4.406 3.594-8 8-8s8 3.594 8 8c0 1.563-0.453 3.016-1.234 4.25zM12 2c-3.313 0-6 2.688-6 6s2.688 6 6 6 6-2.688 6-6-2.688-6-6-6zM18.672 26c1.828 0 3.328-1.703 3.328-3.828 0-4.922-1.656-8-4.75-8.156-1.406 1.234-3.234 1.984-5.25 1.984s-3.844-0.75-5.25-1.984c-3.094 0.156-4.75 3.234-4.75 8.156 0 2.125 1.5 3.828 3.328 3.828h13.344z"></path>
</symbol>
<symbol id="icon-cart" viewBox="0 0 26 28">
<path d="M19 11c0-0.547-0.453-1-1-1h-2v-2c0-0.547-0.453-1-1-1s-1 0.453-1 1v2h-2c-0.547 0-1 0.453-1 1s0.453 1 1 1h2v2c0 0.547 0.453 1 1 1s1-0.453 1-1v-2h2c0.547 0 1-0.453 1-1zM10 24c0 1.109-0.891 2-2 2s-2-0.891-2-2 0.891-2 2-2 2 0.891 2 2zM24 24c0 1.109-0.891 2-2 2s-2-0.891-2-2 0.891-2 2-2 2 0.891 2 2zM26 7v8c0 0.5-0.375 0.938-0.891 1l-16.312 1.906c0.063 0.344 0.203 0.734 0.203 1.094s-0.219 0.688-0.375 1h14.375c0.547 0 1 0.453 1 1s-0.453 1-1 1h-16c-0.547 0-1-0.453-1-1 0-0.484 0.734-1.687 0.953-2.141l-2.766-12.859h-3.187c-0.547 0-1-0.453-1-1s0.453-1 1-1h4c1.062 0 1.078 1.25 1.234 2h18.766c0.547 0 1 0.453 1 1z"></path>
</symbol>
<symbol id="icon-ticket" viewBox="0 0 28 28">
<path d="M16 7.063l4.937 4.937-8.937 8.937-4.937-4.937zM12.703 22.359l9.656-9.656c0.391-0.391 0.391-1.016 0-1.406l-5.656-5.656c-0.375-0.375-1.031-0.375-1.406 0l-9.656 9.656c-0.391 0.391-0.391 1.016 0 1.406l5.656 5.656c0.187 0.187 0.438 0.281 0.703 0.281s0.516-0.094 0.703-0.281zM26.594 12.406l-14.172 14.187c-0.781 0.766-2.063 0.766-2.828 0l-1.969-1.969c1.172-1.172 1.172-3.078 0-4.25s-3.078-1.172-4.25 0l-1.953-1.969c-0.781-0.766-0.781-2.047 0-2.828l14.172-14.156c0.766-0.781 2.047-0.781 2.828 0l1.953 1.953c-1.172 1.172-1.172 3.078 0 4.25s3.078 1.172 4.25 0l1.969 1.953c0.766 0.781 0.766 2.063 0 2.828z"></path>
</symbol>
<symbol id="icon-undo" viewBox="0 0 24 28">
<path d="M24 14c0 6.609-5.391 12-12 12-3.578 0-6.953-1.578-9.234-4.328-0.156-0.203-0.141-0.5 0.031-0.672l2.141-2.156c0.109-0.094 0.25-0.141 0.391-0.141 0.141 0.016 0.281 0.078 0.359 0.187 1.531 1.984 3.828 3.109 6.312 3.109 4.406 0 8-3.594 8-8s-3.594-8-8-8c-2.047 0-3.984 0.781-5.437 2.141l2.141 2.156c0.297 0.281 0.375 0.719 0.219 1.078-0.156 0.375-0.516 0.625-0.922 0.625h-7c-0.547 0-1-0.453-1-1v-7c0-0.406 0.25-0.766 0.625-0.922 0.359-0.156 0.797-0.078 1.078 0.219l2.031 2.016c2.203-2.078 5.187-3.313 8.266-3.313 6.609 0 12 5.391 12 12z"></path>
</symbol>
<symbol id="icon-rocket" viewBox="0 0 26 28">
<path d="M22.5 7c0-0.828-0.672-1.5-1.5-1.5s-1.5 0.672-1.5 1.5 0.672 1.5 1.5 1.5 1.5-0.672 1.5-1.5zM26 2.5c0 5.187-1.437 8.641-5.141 12.359-0.906 0.891-1.937 1.813-3.047 2.75l-0.313 5.922c-0.016 0.156-0.109 0.313-0.25 0.406l-6 3.5c-0.078 0.047-0.156 0.063-0.25 0.063-0.125 0-0.25-0.047-0.359-0.141l-1-1c-0.125-0.141-0.172-0.328-0.125-0.5l1.328-4.312-4.391-4.391-4.312 1.328c-0.047 0.016-0.094 0.016-0.141 0.016-0.125 0-0.266-0.047-0.359-0.141l-1-1c-0.156-0.172-0.187-0.422-0.078-0.609l3.5-6c0.094-0.141 0.25-0.234 0.406-0.25l5.922-0.313c0.938-1.109 1.859-2.141 2.75-3.047 3.906-3.891 6.891-5.141 12.328-5.141 0.281 0 0.531 0.219 0.531 0.5z"></path>
</symbol>
<symbol id="icon-user-circle" viewBox="0 0 28 28">
<path d="M14 0c7.734 0 14 6.266 14 14 0 7.688-6.234 14-14 14-7.75 0-14-6.297-14-14 0-7.734 6.266-14 14-14zM23.672 21.109c1.453-2 2.328-4.453 2.328-7.109 0-6.609-5.391-12-12-12s-12 5.391-12 12c0 2.656 0.875 5.109 2.328 7.109 0.562-2.797 1.922-5.109 4.781-5.109 1.266 1.234 2.984 2 4.891 2s3.625-0.766 4.891-2c2.859 0 4.219 2.312 4.781 5.109zM20 11c0-3.313-2.688-6-6-6s-6 2.688-6 6 2.688 6 6 6 6-2.688 6-6z"></path>
</symbol>
<symbol id="icon-resources" viewBox="0 0 29 28">
<path d="M29.359 14.875c0 0.375-0.234 0.75-0.484 1.031l-5.25 6.188c-0.906 1.062-2.75 1.906-4.125 1.906h-17c-0.562 0-1.359-0.172-1.359-0.875 0-0.375 0.234-0.75 0.484-1.031l5.25-6.188c0.906-1.062 2.75-1.906 4.125-1.906h17c0.562 0 1.359 0.172 1.359 0.875zM24 9.5v2.5h-13c-1.953 0-4.375 1.109-5.641 2.609l-5.344 6.281c0-0.125-0.016-0.266-0.016-0.391v-15c0-1.922 1.578-3.5 3.5-3.5h5c1.922 0 3.5 1.578 3.5 3.5v0.5h8.5c1.922 0 3.5 1.578 3.5 3.5z"></path>
</symbol>
<symbol id="icon-bin" viewBox="0 0 22 28">
<path d="M8 11.5v9c0 0.281-0.219 0.5-0.5 0.5h-1c-0.281 0-0.5-0.219-0.5-0.5v-9c0-0.281 0.219-0.5 0.5-0.5h1c0.281 0 0.5 0.219 0.5 0.5zM12 11.5v9c0 0.281-0.219 0.5-0.5 0.5h-1c-0.281 0-0.5-0.219-0.5-0.5v-9c0-0.281 0.219-0.5 0.5-0.5h1c0.281 0 0.5 0.219 0.5 0.5zM16 11.5v9c0 0.281-0.219 0.5-0.5 0.5h-1c-0.281 0-0.5-0.219-0.5-0.5v-9c0-0.281 0.219-0.5 0.5-0.5h1c0.281 0 0.5 0.219 0.5 0.5zM18 22.813v-14.812h-14v14.812c0 0.75 0.422 1.188 0.5 1.188h13c0.078 0 0.5-0.438 0.5-1.188zM7.5 6h7l-0.75-1.828c-0.047-0.063-0.187-0.156-0.266-0.172h-4.953c-0.094 0.016-0.219 0.109-0.266 0.172zM22 6.5v1c0 0.281-0.219 0.5-0.5 0.5h-1.5v14.812c0 1.719-1.125 3.187-2.5 3.187h-13c-1.375 0-2.5-1.406-2.5-3.125v-14.875h-1.5c-0.281 0-0.5-0.219-0.5-0.5v-1c0-0.281 0.219-0.5 0.5-0.5h4.828l1.094-2.609c0.313-0.766 1.25-1.391 2.078-1.391h5c0.828 0 1.766 0.625 2.078 1.391l1.094 2.609h4.828c0.281 0 0.5 0.219 0.5 0.5z"></path>
</symbol>
<symbol id="icon-edit" viewBox="0 0 28 28">
<path d="M13.875 18.5l1.813-1.813-2.375-2.375-1.813 1.813v0.875h1.5v1.5h0.875zM20.75 7.25c-0.141-0.141-0.375-0.125-0.516 0.016l-5.469 5.469c-0.141 0.141-0.156 0.375-0.016 0.516s0.375 0.125 0.516-0.016l5.469-5.469c0.141-0.141 0.156-0.375 0.016-0.516zM22 16.531v2.969c0 2.484-2.016 4.5-4.5 4.5h-13c-2.484 0-4.5-2.016-4.5-4.5v-13c0-2.484 2.016-4.5 4.5-4.5h13c0.625 0 1.25 0.125 1.828 0.391 0.141 0.063 0.25 0.203 0.281 0.359 0.031 0.172-0.016 0.328-0.141 0.453l-0.766 0.766c-0.141 0.141-0.328 0.187-0.5 0.125-0.234-0.063-0.469-0.094-0.703-0.094h-13c-1.375 0-2.5 1.125-2.5 2.5v13c0 1.375 1.125 2.5 2.5 2.5h13c1.375 0 2.5-1.125 2.5-2.5v-1.969c0-0.125 0.047-0.25 0.141-0.344l1-1c0.156-0.156 0.359-0.187 0.547-0.109s0.313 0.25 0.313 0.453zM20.5 5l4.5 4.5-10.5 10.5h-4.5v-4.5zM27.438 7.063l-1.437 1.437-4.5-4.5 1.437-1.437c0.578-0.578 1.547-0.578 2.125 0l2.375 2.375c0.578 0.578 0.578 1.547 0 2.125z"></path>
</symbol>
<symbol id="icon-bell" viewBox="0 0 28 28">
<path d="M14.25 26.5c0-0.141-0.109-0.25-0.25-0.25-1.234 0-2.25-1.016-2.25-2.25 0-0.141-0.109-0.25-0.25-0.25s-0.25 0.109-0.25 0.25c0 1.516 1.234 2.75 2.75 2.75 0.141 0 0.25-0.109 0.25-0.25zM3.844 22h20.312c-2.797-3.156-4.156-7.438-4.156-13 0-2.016-1.906-5-6-5s-6 2.984-6 5c0 5.563-1.359 9.844-4.156 13zM27 22c0 1.094-0.906 2-2 2h-7c0 2.203-1.797 4-4 4s-4-1.797-4-4h-7c-1.094 0-2-0.906-2-2 2.312-1.953 5-5.453 5-13 0-3 2.484-6.281 6.625-6.891-0.078-0.187-0.125-0.391-0.125-0.609 0-0.828 0.672-1.5 1.5-1.5s1.5 0.672 1.5 1.5c0 0.219-0.047 0.422-0.125 0.609 4.141 0.609 6.625 3.891 6.625 6.891 0 7.547 2.688 11.047 5 13z"></path>
</symbol>
<symbol id="icon-purchase" viewBox="0 0 24 24">
<path d="M19 5h-14l1.5-2h11zM21.794 5.392l-2.994-3.992c-0.196-0.261-0.494-0.399-0.8-0.4h-12c-0.326 0-0.616 0.156-0.8 0.4l-2.994 3.992c-0.043 0.056-0.081 0.117-0.111 0.182-0.065 0.137-0.096 0.283-0.095 0.426v14c0 0.828 0.337 1.58 0.879 2.121s1.293 0.879 2.121 0.879h14c0.828 0 1.58-0.337 2.121-0.879s0.879-1.293 0.879-2.121v-14c0-0.219-0.071-0.422-0.189-0.585-0.004-0.005-0.007-0.010-0.011-0.015zM4 7h16v13c0 0.276-0.111 0.525-0.293 0.707s-0.431 0.293-0.707 0.293h-14c-0.276 0-0.525-0.111-0.707-0.293s-0.293-0.431-0.293-0.707zM15 10c0 0.829-0.335 1.577-0.879 2.121s-1.292 0.879-2.121 0.879-1.577-0.335-2.121-0.879-0.879-1.292-0.879-2.121c0-0.552-0.448-1-1-1s-1 0.448-1 1c0 1.38 0.561 2.632 1.464 3.536s2.156 1.464 3.536 1.464 2.632-0.561 3.536-1.464 1.464-2.156 1.464-3.536c0-0.552-0.448-1-1-1s-1 0.448-1 1z"></path>
</symbol>
<symbol id="icon-shipping" viewBox="0 0 24 24">
<path d="M18 18.516q0.656 0 1.078-0.445t0.422-1.055-0.422-1.055-1.078-0.445-1.078 0.445-0.422 1.055 0.422 1.055 1.078 0.445zM19.5 9.516h-2.484v2.484h4.453zM6 18.516q0.656 0 1.078-0.445t0.422-1.055-0.422-1.055-1.078-0.445-1.078 0.445-0.422 1.055 0.422 1.055 1.078 0.445zM20.016 8.016l3 3.984v5.016h-2.016q0 1.219-0.891 2.109t-2.109 0.891-2.109-0.891-0.891-2.109h-6q0 1.219-0.891 2.109t-2.109 0.891-2.109-0.891-0.891-2.109h-2.016v-11.016q0-0.797 0.609-1.406t1.406-0.609h14.016v4.031h3z"></path>
</symbol>
<symbol id="icon-contacts" viewBox="0 0 24 24">
<path d="M17.016 17.016v-1.5q0-1.125-1.711-1.828t-3.305-0.703-3.305 0.703-1.711 1.828v1.5h10.031zM12 6.75q-0.938 0-1.594 0.656t-0.656 1.594 0.656 1.594 1.594 0.656 1.594-0.656 0.656-1.594-0.656-1.594-1.594-0.656zM20.016 3.984q0.797 0 1.383 0.609t0.586 1.406v12q0 0.797-0.586 1.406t-1.383 0.609h-16.031q-0.797 0-1.383-0.609t-0.586-1.406v-12q0-0.797 0.586-1.406t1.383-0.609h16.031zM3.984 24v-2.016h16.031v2.016h-16.031zM20.016 0v2.016h-16.031v-2.016h16.031z"></path>
</symbol>
<symbol id="icon-info" viewBox="0 0 24 24">
<path d="M11.016 9v-2.016h1.969v2.016h-1.969zM12 20.016q3.281 0 5.648-2.367t2.367-5.648-2.367-5.648-5.648-2.367-5.648 2.367-2.367 5.648 2.367 5.648 5.648 2.367zM12 2.016q4.125 0 7.055 2.93t2.93 7.055-2.93 7.055-7.055 2.93-7.055-2.93-2.93-7.055 2.93-7.055 7.055-2.93zM11.016 17.016v-6h1.969v6h-1.969z"></path>
</symbol>
<symbol id="icon-home" viewBox="0 0 24 24">
<path d="M9.984 20.016h-4.969v-8.016h-3l9.984-9 9.984 9h-3v8.016h-4.969v-6h-4.031v6z"></path>
</symbol>
<symbol id="icon-call" viewBox="0 0 24 24">
<path d="M20.016 15.375q0.422 0 0.703 0.281t0.281 0.703v3.469q0 1.172-0.984 1.172-6.984 0-12-5.016t-5.016-12q0-0.984 1.172-0.984h3.469q0.422 0 0.703 0.281t0.281 0.703q0 1.828 0.563 3.516 0.188 0.609-0.234 1.031l-1.922 1.688q2.156 4.5 6.891 6.797l1.547-1.969q0.281-0.281 0.703-0.281 0.234 0 0.328 0.047 1.688 0.563 3.516 0.563z"></path>
</symbol>
<symbol id="icon-mail" viewBox="0 0 24 24">
<path d="M12 11.016l8.016-5.016h-16.031zM20.016 18v-9.984l-8.016 4.969-8.016-4.969v9.984h16.031zM20.016 3.984q0.797 0 1.383 0.609t0.586 1.406v12q0 0.797-0.586 1.406t-1.383 0.609h-16.031q-0.797 0-1.383-0.609t-0.586-1.406v-12q0-0.797 0.586-1.406t1.383-0.609h16.031z"></path>
</symbol>
<symbol id="icon-location" viewBox="0 0 24 24">
<path d="M12 11.484q1.031 0 1.758-0.727t0.727-1.758-0.727-1.758-1.758-0.727-1.758 0.727-0.727 1.758 0.727 1.758 1.758 0.727zM12 2.016q2.906 0 4.945 2.039t2.039 4.945q0 1.453-0.727 3.328t-1.758 3.516-2.039 3.070-1.711 2.273l-0.75 0.797q-0.281-0.328-0.75-0.867t-1.688-2.156-2.133-3.141-1.664-3.445-0.75-3.375q0-2.906 2.039-4.945t4.945-2.039z"></path>
</symbol>
<symbol id="icon-categories" viewBox="0 0 24 24">
<path d="M3.984 11.016v1.969h2.016v-1.969h-2.016zM2.016 14.016v-4.031h19.969v4.031h-19.969zM6 6.984v-1.969h-2.016v1.969h2.016zM2.016 3.984h19.969v4.031h-19.969v-4.031zM3.984 17.016v1.969h2.016v-1.969h-2.016zM2.016 20.016v-4.031h19.969v4.031h-19.969z"></path>
</symbol>
<symbol id="icon-users" viewBox="0 0 24 24">
<path d="M6 8.016q0-1.125 0.539-2.039t1.453-1.453 1.992-0.539q1.125 0 2.039 0.539t1.453 1.453 0.539 2.039q0 1.078-0.539 1.992t-1.453 1.453-2.039 0.539q-1.078 0-1.992-0.539t-1.453-1.453-0.539-1.992zM10.359 14.016q-0.844-0.047-1.922 0.094t-2.203 0.469-2.086 0.82-1.547 1.148-0.586 1.453v2.016h9.516q-0.938-1.031-1.242-2.086t-0.281-1.922 0.164-1.406 0.188-0.586zM19.453 18q0.563-0.938 0.563-2.016t-0.539-1.992-1.453-1.453-2.039-0.539q-1.078 0-1.992 0.539t-1.453 1.453-0.539 1.992q0 1.125 0.539 2.039t1.453 1.453 1.992 0.539q0.563 0 1.078-0.164t0.938-0.398l2.578 2.531 1.406-1.406zM15.984 18q-0.797 0-1.383-0.586t-0.586-1.43q0-0.797 0.586-1.383t1.383-0.586q0.844 0 1.43 0.586t0.586 1.383q0 0.844-0.586 1.43t-1.43 0.586z"></path>
</symbol>
<symbol id="icon-dashboard" viewBox="0 0 24 24">
<path d="M12.984 3h8.016v6h-8.016v-6zM12.984 21v-9.984h8.016v9.984h-8.016zM3 21v-6h8.016v6h-8.016zM3 12.984v-9.984h8.016v9.984h-8.016z"></path>
</symbol>
<symbol id="icon-log-out" viewBox="0 0 24 24">
<path d="M9 20h-4c-0.276 0-0.525-0.111-0.707-0.293s-0.293-0.431-0.293-0.707v-14c0-0.276 0.111-0.525 0.293-0.707s0.431-0.293 0.707-0.293h4c0.552 0 1-0.448 1-1s-0.448-1-1-1h-4c-0.828 0-1.58 0.337-2.121 0.879s-0.879 1.293-0.879 2.121v14c0 0.828 0.337 1.58 0.879 2.121s1.293 0.879 2.121 0.879h4c0.552 0 1-0.448 1-1s-0.448-1-1-1zM18.586 11h-9.586c-0.552 0-1 0.448-1 1s0.448 1 1 1h9.586l-3.293 3.293c-0.391 0.391-0.391 1.024 0 1.414s1.024 0.391 1.414 0l5-5c0.092-0.092 0.166-0.202 0.217-0.324 0.15-0.362 0.078-0.795-0.217-1.090l-5-5c-0.391-0.391-1.024-0.391-1.414 0s-0.391 1.024 0 1.414z"></path>
</symbol>
<symbol id="icon-check-circle" viewBox="0 0 24 24">
<path d="M9.984 17.016l9-9-1.406-1.453-7.594 7.594-3.563-3.563-1.406 1.406zM12 2.016q4.125 0 7.055 2.93t2.93 7.055-2.93 7.055-7.055 2.93-7.055-2.93-2.93-7.055 2.93-7.055 7.055-2.93z"></path>
</symbol>
<symbol id="icon-warning" viewBox="0 0 24 24">
<path d="M12.984 14.016v-4.031h-1.969v4.031h1.969zM12.984 18v-2.016h-1.969v2.016h1.969zM0.984 21l11.016-18.984 11.016 18.984h-22.031z"></path>
</symbol>
<symbol id="icon-clear" viewBox="0 0 24 24">
<path d="M18.984 6.422l-5.578 5.578 5.578 5.578-1.406 1.406-5.578-5.578-5.578 5.578-1.406-1.406 5.578-5.578-5.578-5.578 1.406-1.406 5.578 5.578 5.578-5.578z"></path>
</symbol>
<symbol id="icon-products" viewBox="0 0 32 32">
<path d="M4 13h10v7h5v-7h10v15h-25v-15zM14 12h-10l5-8h6l-1 8zM19 12h10l-5-8h-6l1 8zM15 12h3l-1-8h-1l-1 8zM15 13v6h3v-6h-3zM6 21v1h7v-1h-7zM6 25v1h7v-1h-7zM6 23v1h5v-1h-5z"></path>
</symbol>
<symbol id="icon-blogs" viewBox="0 0 32 32">
<path d="M6.058 6.835l0.686 0.686-2.808 2.808 2.188 2.188 2.821-2.821 0.641 0.641-2.821 2.822 2.16 2.159 6.416-6.416-7.812-7.766-6.393 6.393 2.114 2.115 2.808-2.809zM23.099 16.659l-6.416 6.417 2.159 2.159 2.822-2.821 0.641 0.641-2.821 2.821 2.188 2.188 2.807-2.808 0.686 0.686-2.807 2.808 2.113 2.114 6.394-6.394-7.766-7.811zM29.822 8.451c0.781-0.782 0.787-2.045 0.012-2.821l-3.512-3.511c-0.775-0.775-2.039-0.771-2.82 0.012l-2.17 2.17 6.32 6.32 2.17-2.17zM3.398 25.942l2.623 2.623 5.284-1.877-6.030-6.030-1.877 5.284zM20.65 4.943l-14.885 14.886 6.369 6.369 14.886-14.886-6.37-6.369zM8.657 19.816l11.981-11.981 0.698 0.698-11.982 11.982-0.697-0.699zM10.053 21.213l11.98-11.981 0.698 0.698-11.981 11.98-0.697-0.697zM11.449 22.608l11.981-11.981 0.697 0.698-11.98 11.981-0.698-0.698zM1.954 30.010l3.066-1.117-1.949-1.949-1.117 3.066z"></path>
</symbol>
</defs>
</svg>
