<svg aria-hidden="true" style="position: absolute; width: 0; height: 0; overflow: hidden;" version="1.1" xmlns="http://www.w3.org/2000/svg" xmlns:xlink="http://www.w3.org/1999/xlink">
<defs>
<symbol id="icon-blogs" viewBox="0 0 32 32">
<path d="M6.058 6.835l0.686 0.686-2.808 2.808 2.188 2.188 2.821-2.821 0.641 0.641-2.821 2.822 2.16 2.159 6.416-6.416-7.812-7.766-6.393 6.393 2.114 2.115 2.808-2.809zM23.099 16.659l-6.416 6.417 2.159 2.159 2.822-2.821 0.641 0.641-2.821 2.821 2.188 2.188 2.807-2.808 0.686 0.686-2.807 2.808 2.113 2.114 6.394-6.394-7.766-7.811zM29.822 8.451c0.781-0.782 0.787-2.045 0.012-2.821l-3.512-3.511c-0.775-0.775-2.039-0.771-2.82 0.012l-2.17 2.17 6.32 6.32 2.17-2.17zM3.398 25.942l2.623 2.623 5.284-1.877-6.030-6.030-1.877 5.284zM20.65 4.943l-14.885 14.886 6.369 6.369 14.886-14.886-6.37-6.369zM8.657 19.816l11.981-11.981 0.698 0.698-11.982 11.982-0.697-0.699zM10.053 21.213l11.98-11.981 0.698 0.698-11.981 11.98-0.697-0.697zM11.449 22.608l11.981-11.981 0.697 0.698-11.98 11.981-0.698-0.698zM1.954 30.010l3.066-1.117-1.949-1.949-1.117 3.066z"></path>
</symbol>
<symbol id="icon-users" viewBox="0 0 24 24">
<path d="M6 8.016q0-1.125 0.539-2.039t1.453-1.453 1.992-0.539q1.125 0 2.039 0.539t1.453 1.453 0.539 2.039q0 1.078-0.539 1.992t-1.453 1.453-2.039 0.539q-1.078 0-1.992-0.539t-1.453-1.453-0.539-1.992zM10.359 14.016q-0.844-0.047-1.922 0.094t-2.203 0.469-2.086 0.82-1.547 1.148-0.586 1.453v2.016h9.516q-0.938-1.031-1.242-2.086t-0.281-1.922 0.164-1.406 0.188-0.586zM19.453 18q0.563-0.938 0.563-2.016t-0.539-1.992-1.453-1.453-2.039-0.539q-1.078 0-1.992 0.539t-1.453 1.453-0.539 1.992q0 1.125 0.539 2.039t1.453 1.453 1.992 0.539q0.563 0 1.078-0.164t0.938-0.398l2.578 2.531 1.406-1.406zM15.984 18q-0.797 0-1.383-0.586t-0.586-1.43q0-0.797 0.586-1.383t1.383-0.586q0.844 0 1.43 0.586t0.586 1.383q0 0.844-0.586 1.43t-1.43 0.586z"></path>
</symbol>
<symbol id="icon-dashboard" viewBox="0 0 24 24">
<path d="M12.984 3h8.016v6h-8.016v-6zM12.984 21v-9.984h8.016v9.984h-8.016zM3 21v-6h8.016v6h-8.016zM3 12.984v-9.984h8.016v9.984h-8.016z"></path>
</symbol>
<symbol id="icon-log-out" viewBox="0 0 24 24">
<path d="M9 20h-4c-0.276 0-0.525-0.111-0.707-0.293s-0.293-0.431-0.293-0.707v-14c0-0.276 0.111-0.525 0.293-0.707s0.431-0.293 0.707-0.293h4c0.552 0 1-0.448 1-1s-0.448-1-1-1h-4c-0.828 0-1.58 0.337-2.121 0.879s-0.879 1.293-0.879 2.121v14c0 0.828 0.337 1.58 0.879 2.121s1.293 0.879 2.121 0.879h4c0.552 0 1-0.448 1-1s-0.448-1-1-1zM18.586 11h-9.586c-0.552 0-1 0.448-1 1s0.448 1 1 1h9.586l-3.293 3.293c-0.391 0.391-0.391 1.024 0 1.414s1.024 0.391 1.414 0l5-5c0.092-0.092 0.166-0.202 0.217-0.324 0.15-0.362 0.078-0.795-0.217-1.090l-5-5c-0.391-0.391-1.024-0.391-1.414 0s-0.391 1.024 0 1.414z"></path>
</symbol>
<symbol id="icon-check-circle" viewBox="0 0 24 24">
<path d="M9.984 17.016l9-9-1.406-1.453-7.594 7.594-3.563-3.563-1.406 1.406zM12 2.016q4.125 0 7.055 2.93t2.93 7.055-2.93 7.055-7.055 2.93-7.055-2.93-2.93-7.055 2.93-7.055 7.055-2.93z"></path>
</symbol>
<symbol id="icon-warning" viewBox="0 0 24 24">
<path d="M12.984 14.016v-4.031h-1.969v4.031h1.969zM12.984 18v-2.016h-1.969v2.016h1.969zM0.984 21l11.016-18.984 11.016 18.984h-22.031z"></path>
</symbol>
<symbol id="icon-clear" viewBox="0 0 24 24">
<path d="M18.984 6.422l-5.578 5.578 5.578 5.578-1.406 1.406-5.578-5.578-5.578 5.578-1.406-1.406 5.578-5.578-5.578-5.578 1.406-1.406 5.578 5.578 5.578-5.578z"></path>
</symbol>
<symbol id="icon-bin" viewBox="0 0 22 28">
<path d="M8 11.5v9c0 0.281-0.219 0.5-0.5 0.5h-1c-0.281 0-0.5-0.219-0.5-0.5v-9c0-0.281 0.219-0.5 0.5-0.5h1c0.281 0 0.5 0.219 0.5 0.5zM12 11.5v9c0 0.281-0.219 0.5-0.5 0.5h-1c-0.281 0-0.5-0.219-0.5-0.5v-9c0-0.281 0.219-0.5 0.5-0.5h1c0.281 0 0.5 0.219 0.5 0.5zM16 11.5v9c0 0.281-0.219 0.5-0.5 0.5h-1c-0.281 0-0.5-0.219-0.5-0.5v-9c0-0.281 0.219-0.5 0.5-0.5h1c0.281 0 0.5 0.219 0.5 0.5zM18 22.813v-14.812h-14v14.812c0 0.75 0.422 1.188 0.5 1.188h13c0.078 0 0.5-0.438 0.5-1.188zM7.5 6h7l-0.75-1.828c-0.047-0.063-0.187-0.156-0.266-0.172h-4.953c-0.094 0.016-0.219 0.109-0.266 0.172zM22 6.5v1c0 0.281-0.219 0.5-0.5 0.5h-1.5v14.812c0 1.719-1.125 3.187-2.5 3.187h-13c-1.375 0-2.5-1.406-2.5-3.125v-14.875h-1.5c-0.281 0-0.5-0.219-0.5-0.5v-1c0-0.281 0.219-0.5 0.5-0.5h4.828l1.094-2.609c0.313-0.766 1.25-1.391 2.078-1.391h5c0.828 0 1.766 0.625 2.078 1.391l1.094 2.609h4.828c0.281 0 0.5 0.219 0.5 0.5z"></path>
</symbol>
<symbol id="icon-edit" viewBox="0 0 28 28">
<path d="M13.875 18.5l1.813-1.813-2.375-2.375-1.813 1.813v0.875h1.5v1.5h0.875zM20.75 7.25c-0.141-0.141-0.375-0.125-0.516 0.016l-5.469 5.469c-0.141 0.141-0.156 0.375-0.016 0.516s0.375 0.125 0.516-0.016l5.469-5.469c0.141-0.141 0.156-0.375 0.016-0.516zM22 16.531v2.969c0 2.484-2.016 4.5-4.5 4.5h-13c-2.484 0-4.5-2.016-4.5-4.5v-13c0-2.484 2.016-4.5 4.5-4.5h13c0.625 0 1.25 0.125 1.828 0.391 0.141 0.063 0.25 0.203 0.281 0.359 0.031 0.172-0.016 0.328-0.141 0.453l-0.766 0.766c-0.141 0.141-0.328 0.187-0.5 0.125-0.234-0.063-0.469-0.094-0.703-0.094h-13c-1.375 0-2.5 1.125-2.5 2.5v13c0 1.375 1.125 2.5 2.5 2.5h13c1.375 0 2.5-1.125 2.5-2.5v-1.969c0-0.125 0.047-0.25 0.141-0.344l1-1c0.156-0.156 0.359-0.187 0.547-0.109s0.313 0.25 0.313 0.453zM20.5 5l4.5 4.5-10.5 10.5h-4.5v-4.5zM27.438 7.063l-1.437 1.437-4.5-4.5 1.437-1.437c0.578-0.578 1.547-0.578 2.125 0l2.375 2.375c0.578 0.578 0.578 1.547 0 2.125z"></path>
</symbol>
<symbol id="icon-bell" viewBox="0 0 28 28">
<path d="M14.25 26.5c0-0.141-0.109-0.25-0.25-0.25-1.234 0-2.25-1.016-2.25-2.25 0-0.141-0.109-0.25-0.25-0.25s-0.25 0.109-0.25 0.25c0 1.516 1.234 2.75 2.75 2.75 0.141 0 0.25-0.109 0.25-0.25zM3.844 22h20.312c-2.797-3.156-4.156-7.438-4.156-13 0-2.016-1.906-5-6-5s-6 2.984-6 5c0 5.563-1.359 9.844-4.156 13zM27 22c0 1.094-0.906 2-2 2h-7c0 2.203-1.797 4-4 4s-4-1.797-4-4h-7c-1.094 0-2-0.906-2-2 2.312-1.953 5-5.453 5-13 0-3 2.484-6.281 6.625-6.891-0.078-0.187-0.125-0.391-0.125-0.609 0-0.828 0.672-1.5 1.5-1.5s1.5 0.672 1.5 1.5c0 0.219-0.047 0.422-0.125 0.609 4.141 0.609 6.625 3.891 6.625 6.891 0 7.547 2.688 11.047 5 13z"></path>
</symbol>
</defs>
</svg>
